<svg id="Capa_1" data-name="Capa 1" xmlns="http://www.w3.org/2000/svg" xmlns:xlink="http://www.w3.org/1999/xlink" viewBox="0 0 47.95 34.67"><defs><style>.cls-1{fill:#fcc;}.cls-2{clip-path:url(#clip-path);}.cls-3{fill:#fff;}.cls-4{font-size:7.38px;fill:#336;font-family:LacostaPERSONALUSEONLY, Lacosta PERSONAL USE ONLY;}</style><clipPath id="clip-path"><circle class="cls-1" cx="24.25" cy="15.94" r="14.94" transform="translate(5.53 38.11) rotate(-83.16)"/></clipPath></defs><title>logo_celu</title><circle class="cls-1" cx="24.25" cy="15.94" r="14.94" transform="translate(5.53 38.11) rotate(-83.16)"/><g class="cls-2"><path class="cls-3" d="M35.27,16.93,31.5,19.09l-6.94-8.57-6,6.66-1.75-1.33L0,30.75l48,.39ZM12.52,23.86a4.29,4.29,0,0,1,1.19-3.24c1.39-1.38,2.86-2.47,3.22-3.9l1.27,1.1Zm15.75-4.38c-1.27-1.09-4.42,1.05-5.93,1.95,1.2-4.8.88-7.23.48-7.66l1.83-2.23L36,25.67S29.54,20.58,28.27,19.48ZM36.92,22a1.62,1.62,0,0,1-1.41-.5c-.58-.47-.68-4-.24-3.71l5.81,6.85s-2.31-1.8-2.91-2.3A1.16,1.16,0,0,0,36.92,22Z"/></g><text class="cls-4" transform="translate(3.89 27.21) rotate(20.32)">S</text><text class="cls-4" transform="translate(10.8 29.62) rotate(13.41)">n</text><text class="cls-4" transform="translate(14.16 30.41) rotate(9.03)">o</text><text class="cls-4" transform="translate(17.51 30.96) rotate(3.72)">w</text><text class="cls-4" transform="matrix(1, -0.01, 0.01, 1, 22.05, 31.19)"> </text><text class="cls-4" transform="matrix(0.99, -0.13, 0.13, 0.99, 24.21, 31.29)">S</text><text class="cls-4" transform="translate(31.42 30.17) rotate(-13.98)">t</text><text class="cls-4" transform="translate(33.17 29.75) rotate(-17.51)">y</text><text class="cls-4" transform="translate(36.3 28.73) rotate(-20.99)">l</text><text class="cls-4" transform="translate(37.96 28.11) rotate(-24.26)">e</text><path class="cls-3" d="M19.52,7.64a2.58,2.58,0,1,1-2.58-2.58A2.58,2.58,0,0,1,19.52,7.64Z"/></svg>