<svg height="512" viewBox="0 0 74 74" width="512" xmlns="http://www.w3.org/2000/svg"><g id="Icons"><path d="m55 53h-48a5.006 5.006 0 0 1 -5-5v-30a5.006 5.006 0 0 1 5-5h52a5.006 5.006 0 0 1 5 5v26h-2v-26a3 3 0 0 0 -3-3h-52a3 3 0 0 0 -3 3v30a3 3 0 0 0 3 3h48z"/><path d="m63 61a9 9 0 1 1 9-9 9.01 9.01 0 0 1 -9 9zm0-16a7 7 0 1 0 7 7 7.008 7.008 0 0 0 -7-7z"/><path d="m3 19h60v2h-60z"/><path d="m3 25h60v2h-60z"/><path d="m7 46h28v2h-28z"/><path d="m7 41h18v2h-18z"/><path d="m61 56a1 1 0 0 1 -.707-.293l-2-2 1.414-1.414 1.293 1.293 5.293-5.293 1.414 1.414-6 6a1 1 0 0 1 -.707.293z"/></g></svg>